<svg id="Layer_1" data-name="Layer 1" xmlns="http://www.w3.org/2000/svg" viewBox="0 0 383.97 448.1"><defs><style>.cls-1{fill:#fff;}</style></defs><title>x2</title><path class="cls-1" d="M162.7,210q-2.7,5-70.1,123.5C87.7,341.8,81.8,346,74.9,346H9.8c-7.7,0-12.1-7.5-8.5-14.4l69-121.3q.3,0,0-.3L26.4,134.4c-4.3-7.8.3-14.1,8.5-14.1H100c7.3,0,13.3,4.1,18,12.2ZM382.6,46.1l-144,253v.3L330.2,466c3.9,7.1.2,14.1-8.5,14.1H256.5c-7.6,0-13.6-4-18-12.2L146.1,299.4q5-8.7,144.8-255.2c4.6-8.1,10.4-12.2,17.5-12.2h65.7c8,0,12.3,6.7,8.5,14.1Z" transform="translate(-0.03 -32)"/></svg>